<svg xmlns="http://www.w3.org/2000/svg" viewBox="0 0 82.8 141.1"><g id="Layer_2" data-name="Layer 2"><g id="Layer_1-2" data-name="Layer 1"><g id="JkU4RJ.tif"><path d="M10.89,141.1c-4.12-1.4-6.62-4.78-9.31-7.85-2.19-2.51-2-6.57.12-9.19a23.32,23.32,0,0,1,1.59-1.71Q28.52,97.08,53.75,71.83a13.06,13.06,0,0,1,1.4-1c-.63-.66-1-1-1.37-1.43L2.94,18.45c-3-3-3.94-6.76-1.68-9.8A38.73,38.73,0,0,1,8.69,1.22c2.59-2,6.09-1.4,8.65.71a12.77,12.77,0,0,1,1,.92Q49.18,33.71,80,64.57c3,3,3.62,6.59,1.71,9.86a10.72,10.72,0,0,1-1.81,2.23q-30.71,30.78-61.47,61.5c-1.24,1.24-3,2-4.51,2.94Z"/></g></g></g></svg>
