<svg xmlns="http://www.w3.org/2000/svg" viewBox="0 0 82.8 141.1"><g id="Layer_2" data-name="Layer 2"><g id="Layer_1-2" data-name="Layer 1"><g id="JkU4RJ.tif"><path d="M71.9,0C76,1.4,78.53,4.78,81.21,7.85c2.19,2.51,2,6.58-.12,9.19a21.19,21.19,0,0,1-1.58,1.71L29.05,69.27a11.55,11.55,0,0,1-1.4,1L29,71.74l50.84,50.92c3,3,3.94,6.76,1.68,9.79a38.45,38.45,0,0,1-7.43,7.43c-2.59,2-6.09,1.4-8.66-.71-.35-.29-.7-.59-1-.91L2.79,76.53c-3-3-3.61-6.59-1.71-9.86A11.1,11.1,0,0,1,2.9,64.44Q33.61,33.66,64.36,2.94c1.25-1.24,3-2,4.52-2.94Z"/></g></g></g></svg>
